# xmcd
#
# Track frame offsets:
#	150
#	12347
#	24942
#	40484
#	53638
#	68723
#	80802
#	95429
#	107341
#	125053
#	138158
#	148705
#	164779
#
# Disc length: 2409 seconds
#
# Revision: 1
# Processed by: cddbd v1.5.2PL0 Copyright (c) Steve Scherf et al.
# Submitted via: audiograbber 1.83.01
#
DISCID=b109670d
DTITLE=Pacifik - Stopy seslapanejch bot
DYEAR=1991
DGENRE=Country
TTITLE0=Stopy seslapanejch bot
TTITLE1=Ten chlap ma konskou naturu
TTITLE2=Studeny slunce
TTITLE3=Divna laska
TTITLE4=Kalendar
TTITLE5=Koukej se hnout
TTITLE6=Stin na kolejich
TTITLE7=Znam vitr
TTITLE8=Svareny vino
TTITLE9=Vlak do zeme blues
TTITLE10=Morska vila
TTITLE11=Poraneny koleno
TTITLE12=Zlaty udoli
EXTD=
EXTT0=
EXTT1=
EXTT2=
EXTT3=
EXTT4=
EXTT5=
EXTT6=
EXTT7=
EXTT8=
EXTT9=
EXTT10=
EXTT11=
EXTT12=
PLAYORDER=
